<svg xmlns="http://www.w3.org/2000/svg" viewBox="0 0 512 512" width="512" height="512">
  <!-- MyPinkAssistant — app mark (MPA)
       Letterforms traced from the original artwork: no font dependency and no
       font licence. Chosen 2026-07-25: -2 stroke weight, subtly rounded
       corners, gradient field with a light sweep. -->
  <defs>
    <linearGradient id="mpaField" x1="0" y1="0" x2="1" y2="1">
      <stop offset="0" stop-color="#f64a82"/>
      <stop offset="1" stop-color="#c61454"/>
    </linearGradient>
    <radialGradient id="mpaSweep" cx="0.28" cy="-0.15" r="0.95">
      <stop offset="0" stop-color="#ffffff" stop-opacity="0.30"/>
      <stop offset="0.55" stop-color="#ffffff" stop-opacity="0.10"/>
      <stop offset="1" stop-color="#ffffff" stop-opacity="0"/>
    </radialGradient>
    <clipPath id="mpaClip"><rect width="512" height="512" rx="112"/></clipPath>
  </defs>
  <g clip-path="url(#mpaClip)">
    <rect width="512" height="512" fill="url(#mpaField)"/>
    <rect width="512" height="512" fill="url(#mpaSweep)"/>
    <path fill="#ffffff" fill-rule="evenodd" d="M70.00 189.25L68.25 190.50L68.25 191.50L67.75 192.00L67.75 318.00L68.25 318.50L68.25 319.50L69.00 320.25L70.00 320.25L70.50 320.75L84.00 320.75L84.50 320.25L85.50 320.25L86.25 319.50L86.25 318.50L86.75 318.00L86.25 317.50L86.25 242.00L86.75 241.50L86.25 241.00L86.25 229.50L86.75 229.00L86.25 228.00L86.75 227.50L86.75 226.00L89.50 223.25L90.00 223.75L90.50 223.25L91.50 223.75L93.00 223.75L94.75 225.50L96.25 228.00L96.25 229.00L96.75 229.50L97.25 232.00L98.25 233.50L98.75 236.50L99.25 237.00L99.25 238.00L99.75 238.50L99.75 239.50L100.25 240.00L100.25 241.00L100.75 241.50L100.75 242.50L101.25 243.00L101.25 244.00L101.75 244.50L101.75 245.50L102.25 246.00L102.25 247.00L102.75 247.50L104.75 254.50L105.75 256.00L106.25 258.50L107.25 260.00L108.25 264.00L109.25 265.50L109.75 268.00L110.75 269.50L111.25 272.00L112.25 273.50L113.25 277.50L114.25 279.00L114.75 281.50L115.75 283.00L116.25 285.50L117.25 287.00L118.25 291.00L119.25 292.50L119.75 295.00L120.75 296.50L121.25 299.00L122.25 300.50L122.75 303.00L123.75 304.50L123.75 305.50L124.25 306.00L124.75 308.50L125.75 310.00L126.25 312.50L127.25 314.00L127.75 316.50L129.25 319.50L131.50 320.75L132.00 320.25L132.50 320.75L143.50 320.75L144.00 320.25L145.50 320.25L147.25 318.50L147.25 317.50L149.25 313.50L150.25 309.50L151.25 308.00L152.25 304.00L153.25 302.50L154.25 298.50L155.25 297.00L155.75 294.50L156.75 293.00L157.75 289.00L158.75 287.50L159.75 283.50L160.75 282.00L161.75 278.00L162.75 276.50L163.75 272.50L164.75 271.00L164.75 270.00L166.25 267.00L167.25 263.00L168.25 261.50L169.25 257.50L170.25 256.00L170.25 255.00L170.75 254.50L170.75 253.50L171.25 253.00L171.25 252.00L171.75 251.50L171.75 250.50L172.25 250.00L172.25 249.00L172.75 248.50L172.75 247.50L173.25 247.00L173.25 246.00L173.75 245.50L173.75 244.50L174.25 244.00L174.25 243.00L175.75 239.50L175.75 238.00L176.25 237.50L176.25 236.50L176.75 236.00L178.75 229.00L179.75 227.50L179.75 226.50L182.50 223.25L184.00 223.25L184.50 222.75L185.50 223.25L187.00 223.25L188.25 224.50L188.75 226.50L189.25 227.00L188.75 227.50L189.25 228.00L188.75 228.50L189.25 229.00L189.25 240.00L188.75 240.50L189.25 241.00L189.25 317.00L188.75 317.50L189.25 318.00L189.25 319.50L190.00 320.25L191.50 320.25L192.00 320.75L205.50 320.75L206.00 320.25L207.00 320.25L207.75 319.50L208.25 318.50L208.25 316.50L208.75 316.00L208.25 315.50L208.25 194.50L208.75 194.00L208.25 193.50L208.25 191.50L207.50 189.75L206.50 189.75L206.00 189.25L178.00 189.25L177.50 189.75L176.50 189.75L175.25 191.00L174.25 194.50L173.25 196.00L172.25 200.00L171.25 201.50L170.25 205.50L169.25 207.00L168.25 211.00L167.25 212.50L166.25 216.50L165.25 218.00L164.25 222.00L163.25 223.50L162.25 227.50L161.25 229.00L160.25 233.00L159.25 234.50L158.25 238.50L157.25 240.00L156.25 244.00L155.25 245.50L154.25 249.50L153.25 251.00L152.25 255.00L151.25 256.50L151.25 257.50L149.75 261.00L149.75 262.50L148.75 264.50L148.75 266.00L147.75 268.00L147.75 269.50L147.25 270.00L147.25 271.50L146.75 272.00L146.25 275.50L145.25 277.50L145.25 279.00L144.75 279.50L144.75 281.00L144.25 281.50L143.75 284.50L142.75 286.50L140.00 289.25L136.00 289.25L133.75 287.00L132.75 285.00L132.75 284.00L131.75 282.00L131.75 280.50L130.75 278.50L130.75 277.00L130.25 276.50L129.25 271.00L128.25 269.00L127.75 265.50L127.25 265.00L127.25 264.00L126.75 263.50L126.75 262.50L126.25 262.00L126.25 261.00L125.75 260.50L123.75 253.50L122.75 252.00L122.25 249.50L121.25 248.00L120.25 244.00L119.25 242.50L118.75 240.00L117.75 238.50L116.75 234.50L115.75 233.00L115.25 230.50L114.25 229.00L113.25 225.00L112.25 223.50L111.25 219.50L110.25 218.00L109.75 215.50L108.75 214.00L107.75 210.00L106.75 208.50L106.25 206.00L105.25 204.50L104.25 200.50L103.25 199.00L103.25 198.00L101.75 195.00L101.75 194.00L100.75 192.50L100.75 191.50L99.00 189.75L98.00 189.75L97.50 189.25L70.00 189.25Z M241.00 189.25L239.25 190.50L239.25 191.50L238.75 192.00L238.75 318.00L239.25 318.50L239.25 319.50L240.00 320.25L241.00 320.25L241.50 320.75L255.00 320.75L255.50 320.25L256.50 320.25L257.75 318.50L257.75 281.50L258.25 281.00L257.75 280.50L258.25 280.00L258.75 278.00L261.00 275.75L263.00 275.25L263.50 274.75L287.50 274.75L288.00 274.25L288.50 274.75L289.00 274.25L293.50 274.25L294.00 273.75L297.00 273.75L297.50 273.25L298.00 273.75L298.50 273.25L304.00 272.25L307.00 270.75L308.00 270.75L309.50 269.75L310.50 269.75L318.50 264.75L324.75 258.00L326.25 255.00L327.25 254.00L328.75 251.00L328.75 250.00L329.75 248.50L329.75 247.50L331.25 244.00L331.25 242.00L331.75 241.50L331.75 239.50L332.25 239.00L332.25 237.00L332.75 236.50L332.25 236.00L332.25 235.00L332.75 234.50L332.75 229.50L332.25 229.00L332.75 228.50L332.25 228.00L332.75 227.50L332.25 227.00L332.25 225.00L331.75 224.50L331.75 222.00L331.25 221.50L330.75 218.00L326.25 208.00L321.00 201.25L320.50 201.25L318.00 198.75L316.00 197.75L314.50 196.25L313.00 195.75L311.00 194.25L310.00 194.25L308.50 193.25L307.50 193.25L304.50 191.75L303.00 191.75L302.50 191.25L301.00 191.25L300.50 190.75L299.00 190.75L298.50 190.25L296.50 190.25L296.00 189.75L295.50 190.25L295.00 189.75L290.00 189.75L289.50 189.25L289.00 189.75L288.50 189.25L241.00 189.25Z M382.50 189.25L382.00 189.75L381.00 189.75L379.25 192.00L379.25 193.00L378.75 193.50L377.75 197.50L376.75 199.00L376.75 200.00L376.25 200.50L374.25 207.50L373.25 209.00L373.25 210.00L372.75 210.50L372.75 211.50L372.25 212.00L370.25 219.00L369.25 220.50L369.25 221.50L368.75 222.00L366.75 229.00L365.75 230.50L365.75 231.50L365.25 232.00L365.25 233.00L364.75 233.50L362.75 240.50L361.75 242.00L361.75 243.00L361.25 243.50L359.25 250.50L358.25 252.00L358.25 253.00L357.75 253.50L357.75 254.50L357.25 255.00L355.25 262.00L354.25 263.50L354.25 264.50L353.75 265.00L351.75 272.00L350.75 273.50L350.75 274.50L350.25 275.00L350.25 276.00L349.75 276.50L347.75 283.50L346.75 285.00L346.75 286.00L346.25 286.50L344.25 293.50L343.25 295.00L343.25 296.00L342.75 296.50L342.75 297.50L342.25 298.00L340.25 305.00L339.25 306.50L339.25 307.50L338.75 308.00L336.75 315.00L335.75 316.50L335.75 317.50L334.75 319.50L336.50 320.75L352.50 320.75L353.00 320.25L354.50 320.25L355.75 319.00L356.75 317.00L356.75 316.00L357.25 315.50L357.25 314.50L357.75 314.00L357.75 313.00L358.25 312.50L358.25 311.50L358.75 311.00L358.75 310.00L359.25 309.50L359.25 308.50L359.75 308.00L359.75 307.00L360.25 306.50L360.25 305.50L360.75 305.00L360.75 304.00L361.25 303.50L361.25 302.50L361.75 302.00L361.75 301.00L362.25 300.50L362.25 299.50L362.75 299.00L364.75 292.00L365.75 291.00L365.75 290.50L369.50 287.25L371.00 287.25L371.50 286.75L372.00 287.25L372.50 286.75L416.00 286.75L416.50 287.25L417.00 286.75L417.50 287.25L419.50 287.75L423.25 291.50L424.25 293.50L426.25 300.50L427.25 302.00L427.25 303.00L427.75 303.50L427.75 304.50L428.25 305.00L428.25 306.00L428.75 306.50L428.75 307.50L429.25 308.00L429.25 309.00L429.75 309.50L431.75 316.50L432.75 318.00L432.75 319.00L434.00 320.25L435.50 320.25L436.00 320.75L452.00 320.75L452.50 320.25L454.00 320.25L454.25 320.00L453.75 319.50L453.75 318.50L452.75 317.00L451.25 311.50L450.25 310.00L448.75 304.50L447.75 303.00L446.25 297.50L445.25 296.00L443.75 290.50L442.75 289.00L441.25 283.50L440.25 282.00L438.75 276.50L437.75 275.00L436.25 269.50L435.25 268.00L433.75 262.50L432.75 261.00L431.25 255.50L430.25 254.00L428.75 248.50L427.75 247.00L426.25 241.50L425.25 240.00L423.75 234.50L422.75 233.00L420.75 226.00L419.75 224.50L418.25 219.00L417.25 217.50L415.75 212.00L414.75 210.50L413.25 205.00L412.25 203.50L412.25 202.50L411.75 202.00L410.75 198.00L409.75 196.50L409.25 194.00L408.25 192.50L408.25 191.50L406.50 189.75L405.50 189.75L405.00 189.25L382.50 189.25Z M263.25 205.00L289.00 204.75L289.50 205.25L290.00 204.75L290.50 205.25L292.50 205.25L293.00 205.75L294.50 205.75L295.00 206.25L297.50 206.75L300.50 208.25L301.50 209.25L302.00 209.25L308.75 216.00L311.25 221.00L311.25 222.00L311.75 222.50L311.75 224.50L312.25 225.00L312.25 226.50L312.75 227.00L312.25 227.50L312.75 228.50L312.75 235.00L312.25 235.50L312.75 236.00L312.25 236.50L312.75 237.00L312.25 237.50L311.75 241.50L311.25 242.00L311.25 243.00L310.25 244.50L309.75 246.50L307.25 249.50L307.25 250.00L304.00 253.25L303.50 253.25L301.50 255.25L298.00 257.25L297.00 257.25L293.50 258.75L291.50 258.75L291.00 259.25L290.50 258.75L290.00 259.25L288.00 259.25L287.50 259.75L287.00 259.25L286.50 259.75L263.50 259.75L263.00 259.25L262.00 259.25L258.25 255.50L258.25 254.50L257.75 254.00L258.25 253.50L257.75 253.00L257.75 211.50L258.25 211.00L257.75 210.50L258.25 210.00L258.75 208.00L261.00 205.75L263.25 205.00Z M393.25 211.50L394.00 211.25L394.50 211.75L396.00 211.75L398.75 214.50L398.75 215.50L399.75 217.00L400.25 220.00L400.75 220.50L401.25 223.50L401.75 224.00L401.75 225.50L402.25 226.00L402.75 229.00L403.75 231.00L403.75 232.50L404.75 234.50L404.75 236.00L405.25 236.50L405.25 237.50L406.25 239.50L406.25 241.00L407.75 244.50L407.75 246.00L408.25 246.50L408.25 247.50L408.75 248.00L408.75 249.00L409.25 249.50L409.25 250.50L409.75 251.00L409.75 252.00L410.25 252.50L410.25 253.50L410.75 254.00L410.75 255.00L411.25 255.50L411.25 256.50L411.75 257.00L411.75 258.00L412.25 258.50L412.25 259.50L413.75 263.00L413.75 268.00L413.25 269.00L410.50 271.75L409.50 272.25L408.00 272.25L407.50 272.75L407.00 272.25L406.50 272.75L381.50 272.75L381.00 272.25L380.50 272.75L380.00 272.25L378.50 272.25L377.50 271.75L374.75 269.00L374.25 268.00L374.75 267.50L374.25 267.00L374.25 263.50L374.75 263.00L374.75 261.50L375.25 261.00L375.25 260.00L375.75 259.50L375.75 258.50L376.25 258.00L376.25 257.00L376.75 256.50L376.75 255.50L377.25 255.00L377.25 254.00L378.75 250.50L378.75 249.00L380.25 245.50L380.25 244.00L381.25 242.00L381.25 240.50L381.75 240.00L382.25 237.00L383.25 235.00L383.25 233.50L384.25 231.50L384.25 230.00L384.75 229.50L384.75 228.00L385.25 227.50L385.25 226.00L386.25 224.00L386.25 222.50L386.75 222.00L386.75 220.50L387.75 218.50L388.25 215.50L388.75 214.50L391.50 211.75L393.25 211.50Z"/>
  </g>
</svg>
